Complete name : Universal.Squadrons.2011.DVDRip.AC3-TDP
Format : AVI
Format/Info : Audio Video Interleave
File size : 701 MiB
Duration : 1h 22mn
Overall bit rate : 1 187 Kbps
Writing application : MEncoder version 4.0.0 building on 20100917


Video

Format : MPEG-4 Visual
Format profile : Simple@L1
Format settings, BVOP : No
Format settings, QPel : No
Format settings, GMC : No warppoints
Format settings, Matrix : Default (H.263)
Codec ID : DX50
Codec ID/Hint : DivX 5
Duration : 1h 22mn
Bit rate : 989 Kbps
Width : 720 pixels
Height : 404 pixels
Display aspect ratio : 16:9
Frame rate : 29.970 fps
Color space : YUV
Chroma subsampling : 4:2:0
Bit depth : 8 bits
Scan type : Progressive
Compression mode : Lossy
Bits/(Pixel*Frame) : 0.113
Stream size : 584 MiB (83%)
Writing library : DigiArty AV Encoder Core

Audio

Format : AC-3
Format/Info : Audio Coding 3
Mode extension : CM (complete main)
Codec ID : 2000
Duration : 1h 22mn
Bit rate mode : Constant
Bit rate : 192 Kbps
Channel(s) : 2 channels
Channel positions : Front: L R
Sampling rate : 48.0 KHz
Bit depth : 16 bits
Compression mode : Lossy
Stream size : 113 MiB (16%)
Alignment : Split accross interleaves
Interleave, duration : 500 ms (14.98 video frames)
Interleave, preload duration : 500 ms




 For more Apps visit my site:  www(.)ThumperDC(.)com
          for wallpapers visit:  http://wallpapers2012.com/

              `-+ssyyssoo+++++oosyyhhhhhysoo+/:------::.`                 
            `:ydmmddhhyysoooossyhhdmmmmmdhhysoo+/:----:/++/.               
          `/dMMNNNmmdhhysssssyhddmNNNNNNmddhysso+/:--://+oss+.             
         .yNMMMMNNmddhyyssossyhdmNMMMNNmmdhhysso++/:::/+oosyhy:            
        .hMMMMMMNNmdhhyysooosyhdmNNNNmmddhhyssoo+/////++osyyhdh:           
        +MMMMMMMMNmmdhhysooosyhdmNNNNmmddhyysoo+////++oossyhhdmy.          
       .yMMMMMMMMMMNmmdhyysyyhdmNMMMNNmmdhhyso++++++oosssyyhhdmm+`         
       -mMMMMMMMMMMMNdyyyyhddmNMMMMMNmhhhhhyssoooooossssssyyhhddh/`        
       :NMMMMMMMMMMh:````./dmNNMMMMy-````.-+syyysssssssssossyyyhhh+`       
      `hMMMMMMMMMm+`      `+mmNMMMMs`       .:+yhyyysssoo+ooossssyyo-      
      sMMMMMMMMNs.         /dNNNMMMN+`         .-+ssssooo++++++ooosyy/     
    `+NMMMMMNdo-          .hMMMNNNNNm+`           `.-/++++++//////++os:    
   -sNMMNyo/-`           -hMMMNNNmmmdyo:`             ``.-:oo//::--::+o:`  
 `/dMMMm/`             .omMMMMMmhhddhyyso/.                -sho+/:::/+sy:  
 `sMMMMNy/.```` ```.-/smMMMMNh+.`.-/+syyyyys+/-.``   ```.:/sdhsso+++oydd/  
  -smMMMMNmdhyssyyhdmNMMMMMm+` `..`` `/yhhhhdmmmdhyyyyyhddmdhyyyyyyhdmy:`  
   `-+ydNMMMNNmmmdddmNMMMMMNy+ohddys//+yyyyhhdNMMMMMMMNNmdddhddddddyo-`    
       `-/+oyhhddmddmNMMMMMMMMMMNmmddhyyyyyyyhdmNNNNNmmmmmmmmdho+:.`       
             `.-:+smNMMMMMMMNdso++++++syysssyyhhdddmmmmmmmho/-`            
                  `-smMMMMMh/.        `.:+ooosssyyhdddmms-`                
                     /dMMMy.             `-++oossyhdmNmo`                  
                     `oNMN:                .++osyhdmNm+`                   
                      :mMd`                 :osyhdmNy-                     
                      .hMd`                 -osyhmNo`                      
                       yMm-                 -oyhdNs                        
                       sMNo`                /syhmm`                        
                       :NMd+`              -oyhdN/                         
                       `dMNd/             .osydms`                         
                        /MMNy.            /syhmy.                          
                         hMMm/           -oyhmh-                           
                         .dMNy.         `+shmh-                            
                          -dNm+`       `/yhmy.                             
                           .ymh/`   ``-+ydd/`                              
                            `/ys+///oyhhy/`                                
                              `./+ooo/-`      

  For more Apps visit my site:  www(.)ThumperDC(.)com
          for wallpapers visit:  http://wallpapers2012.com/			
